<?xml version="1.0" standalone="no"?>
<!DOCTYPE svg PUBLIC "-//W3C//DTD SVG 20010904//EN"
 "http://www.w3.org/TR/2001/REC-SVG-20010904/DTD/svg10.dtd">
<svg version="1.0" xmlns="http://www.w3.org/2000/svg"
 width="856.000000pt" height="291.000000pt" viewBox="0 0 856.000000 291.000000"
 preserveAspectRatio="xMidYMid meet">
<metadata>
Created by potrace 1.15, written by Peter Selinger 2001-2017
</metadata>
<g transform="translate(0.000000,291.000000) scale(0.100000,-0.100000)"
fill="#000000" stroke="none">
<path d="M0 1455 l0 -1455 4280 0 4280 0 0 1455 0 1455 -4280 0 -4280 0 0
-1455z m4830 737 c87 -43 104 -142 36 -210 -32 -32 -42 -36 -98 -40 -50 -2
-70 1 -95 17 -64 40 -84 112 -49 179 33 63 134 90 206 54z m-3368 -36 c186
-30 319 -142 389 -326 l19 -50 -23 -5 c-21 -4 -315 -60 -369 -70 -24 -4 -30 1
-47 34 -25 48 -78 95 -128 112 -21 8 -70 13 -108 13 -201 -2 -304 -142 -305
-409 0 -277 81 -398 285 -430 65 -10 162 11 252 54 l83 40 0 66 0 65 -150 0
-150 0 0 150 0 150 335 0 335 0 0 -308 0 -307 -67 -42 c-208 -127 -331 -163
-573 -170 -143 -4 -179 -2 -270 17 -147 30 -217 67 -316 165 -63 63 -89 97
-117 158 -57 121 -78 206 -84 342 -6 141 9 239 56 360 78 200 261 353 466 389
106 19 376 20 487 2z m1846 -163 l3 -153 -366 0 -365 0 0 -105 0 -105 335 0
335 0 0 -145 0 -145 -335 0 -335 0 0 -135 0 -135 370 0 370 0 0 -160 0 -160
-590 0 -590 0 0 693 c0 382 3 697 7 700 3 4 266 6 582 5 l576 -3 3 -152z m978
142 c74 -13 243 -71 262 -89 11 -12 -40 -70 -212 -241 -179 -179 -324 -302
-546 -467 -168 -124 -348 -241 -364 -235 -21 8 -73 152 -86 240 -34 230 74
483 272 632 195 147 430 202 674 160z m1173 -258 c6 -8 17 -45 25 -84 8 -38
31 -125 50 -194 19 -68 57 -214 84 -324 69 -275 64 -266 91 -143 13 57 49 213
81 348 32 135 67 281 77 325 l19 80 85 3 c114 4 116 2 83 -119 -28 -103 -111
-426 -204 -789 -33 -129 -63 -243 -66 -252 -5 -15 -18 -18 -94 -18 l-89 0 -20
68 c-11 37 -47 173 -80 303 -67 262 -99 380 -104 386 -3 2 -9 -16 -15 -39 -6
-24 -37 -137 -68 -253 -31 -115 -70 -266 -88 -335 l-31 -125 -365 -2 -365 -3
92 49 c51 26 126 76 168 109 l75 62 100 0 100 0 0 130 c0 123 -1 130 -20 130
-23 0 -24 5 -9 47 5 17 16 66 22 109 l13 79 48 -193 c27 -106 50 -191 52 -190
3 4 67 247 118 448 68 267 101 386 111 392 18 13 112 9 124 -5z m1308 -112
c25 -66 59 -156 75 -200 17 -44 54 -145 83 -225 108 -296 157 -427 191 -513
18 -48 34 -94 34 -102 0 -12 -18 -15 -98 -15 l-99 0 -12 43 c-7 23 -26 81 -44
129 l-32 88 -228 0 -228 0 -14 -32 c-8 -18 -28 -77 -46 -130 l-32 -98 -99 0
c-62 0 -98 4 -98 11 0 5 20 63 44 127 51 135 140 374 216 582 111 302 162 435
172 448 8 9 35 12 91 10 l80 -3 44 -120z m559 117 c6 -4 66 -116 135 -249 68
-134 126 -243 129 -243 6 0 57 96 177 335 42 83 81 153 87 157 6 4 48 8 94 8
102 0 108 -9 65 -89 -28 -51 -152 -284 -261 -491 -25 -47 -51 -94 -58 -105
-11 -15 -14 -73 -14 -257 l0 -238 -90 0 -90 0 0 234 0 235 -67 123 c-150 277
-293 553 -293 563 0 7 3 15 7 18 9 9 165 9 179 -1z m-2508 -85 c30 -45 60
-108 78 -163 25 -77 29 -104 29 -204 0 -100 -4 -127 -29 -203 -78 -239 -280
-418 -551 -490 -64 -17 -108 -21 -220 -21 -122 1 -152 5 -230 28 -114 35 -224
92 -307 160 -59 49 -116 113 -107 120 2 1 65 37 139 78 341 192 753 471 1064
721 39 31 73 54 77 51 4 -2 30 -37 57 -77z m182 -22 c0 -97 -1 -105 -19 -105
-14 0 -30 20 -57 73 -20 39 -45 84 -55 99 -11 14 -19 29 -19 32 0 3 34 6 75 6
l75 0 0 -105z"/>
<path d="M6577 1459 c-30 -90 -69 -201 -86 -246 l-31 -83 168 0 c93 0 171 3
175 6 3 3 -8 43 -25 88 -17 44 -52 145 -78 223 -27 78 -53 150 -58 159 -7 13
-22 -22 -65 -147z"/>
</g>
</svg>
